<?xml version="1.0" encoding="UTF-8"?>
<svg xmlns="http://www.w3.org/2000/svg" xmlns:xlink="http://www.w3.org/1999/xlink" viewBox="0 0 510 510" width="510" height="510" preserveAspectRatio="xMidYMid meet" style="width: 100%; height: 100%; transform: matrix(1, 0, 0, 1, 0, 0); content-visibility: visible; transition: none !important; animation-duration: 0s !important; animation-delay: -0.0001s; animation-play-state: paused; animation-trigger: none; display: inline; transition-property: none; visibility: visible"><defs style="transition: none !important; animation-duration: 0s !important; visibility: visible"><clipPath id="__lottie_element_15" style="transition: none !important; animation-duration: 0s !important; animation-delay: -0.0001s; animation-play-state: paused; animation-trigger: none; transform-origin: 0px 0px; transition-property: none; visibility: visible"><rect width="510" height="510" x="0" y="0" style="transition: none !important; animation-duration: 0s !important; animation-delay: -0.0001s; animation-play-state: paused; animation-trigger: none; transform-origin: 0px 0px; transition-property: none; visibility: visible" /></clipPath></defs><g clip-path="url(#__lottie_element_15)" style="transition: none !important; animation-duration: 0s !important; animation-delay: -0.0001s; animation-play-state: paused; animation-trigger: none; clip-path: url(&quot;#__lottie_element_15&quot;); transform-origin: 0px 0px; transition-property: none; visibility: visible"><g transform="matrix(1.0700000524520874,0,0,1.119230031967163,245.4810028076172,266.2539978027344)" opacity="1" style="display: block; transition: none !important; animation-duration: 0s !important; animation-delay: -0.0001s; animation-play-state: paused; animation-trigger: none; transform: matrix(1.07, 0, 0, 1.11923, 245.481, 266.254); transform-origin: 0px 0px; transition-property: none; visibility: visible"><g opacity="1" transform="matrix(1,0,0,1,0,0)" style="transition: none !important; animation-duration: 0s !important; animation-delay: -0.0001s; animation-play-state: paused; animation-trigger: none; transform: matrix(1, 0, 0, 1, 0, 0); transform-origin: 0px 0px; transition-property: none; visibility: visible"><path fill="rgb(253,85,85)" fill-opacity="1" d=" M-173.89602661132812,69.62200164794922 C-173.3642578125,131.52503967285156 -118.22200012207031,164.39100646972656 -87.67500305175781,180.0469970703125 C-57.12799835205078,195.7030029296875 -34.15999984741211,208.22799682617188 -6.26200008392334,208.22799682617188 C21.63599967956543,208.22799682617188 40.569000244140625,201.96600341796875 75.1500015258789,183.17799377441406 C109.73174285888672,164.39100646972656 165.81927490234375,122.4652099609375 168.0632781982422,63.6012077331543 C170.44027709960938,1.242207407951355 154.79437255859375,-33.545475006103516 135.30894470214844,-72.80953979492188 C120.07623291015625,-46.59754180908203 106.09300231933594,-34.792999267578125 84.03700256347656,-28.344999313354492 C86.46600341796875,-73.11000061035156 89.33485412597656,-90.01783752441406 76.93238830566406,-124.38954162597656 C64.15149688720703,-159.79373168945312 50.95199966430664,-193.98068237304688 -5.453000068664551,-230.9676971435547 C-14.294611930847168,-185.30943298339844 -20.96925163269043,-164.68887329101562 -30.63410758972168,-142.10398864746094 C-37.57646179199219,-125.7102279663086 -44.02912521362305,-110.47624206542969 -51.709999084472656,-97.40299987792969 C-62.13199996948242,-113.76499938964844 -72.34272003173828,-136.12255859375 -87.75971984863281,-151.71456909179688 C-114.29393768310547,-102.41112518310547 -121.2518310546875,-90.06971740722656 -139.39321899414062,-58.6201057434082 C-154.37037658691406,-33.405330657958984 -174.59222412109375,-7.307196617126465 -173.89602661132812,69.62200164794922z" style="transition: none !important; animation-duration: 0s !important; animation-delay: -0.0001s; animation-play-state: paused; animation-trigger: none; fill: rgb(253, 85, 85); transform-origin: 0px 0px; transition-property: none; visibility: visible"></path><path stroke-linecap="butt" stroke-linejoin="miter" fill-opacity="0" stroke-miterlimit="4" stroke="rgb(10,11,30)" stroke-opacity="1" stroke-width="9" d=" M-173.89602661132812,69.62200164794922 C-173.3642578125,131.52503967285156 -118.22200012207031,164.39100646972656 -87.67500305175781,180.0469970703125 C-57.12799835205078,195.7030029296875 -34.15999984741211,208.22799682617188 -6.26200008392334,208.22799682617188 C21.63599967956543,208.22799682617188 40.569000244140625,201.96600341796875 75.1500015258789,183.17799377441406 C109.73174285888672,164.39100646972656 165.81927490234375,122.4652099609375 168.0632781982422,63.6012077331543 C170.44027709960938,1.242207407951355 154.79437255859375,-33.545475006103516 135.30894470214844,-72.80953979492188 C120.07623291015625,-46.59754180908203 106.09300231933594,-34.792999267578125 84.03700256347656,-28.344999313354492 C86.46600341796875,-73.11000061035156 89.33485412597656,-90.01783752441406 76.93238830566406,-124.38954162597656 C64.15149688720703,-159.79373168945312 50.95199966430664,-193.98068237304688 -5.453000068664551,-230.9676971435547 C-14.294611930847168,-185.30943298339844 -20.96925163269043,-164.68887329101562 -30.63410758972168,-142.10398864746094 C-37.57646179199219,-125.7102279663086 -44.02912521362305,-110.47624206542969 -51.709999084472656,-97.40299987792969 C-62.13199996948242,-113.76499938964844 -72.34272003173828,-136.12255859375 -87.75971984863281,-151.71456909179688 C-114.29393768310547,-102.41112518310547 -121.2518310546875,-90.06971740722656 -139.39321899414062,-58.6201057434082 C-154.37037658691406,-33.405330657958984 -174.59222412109375,-7.307196617126465 -173.89602661132812,69.62200164794922z" style="transition: none !important; animation-duration: 0s !important; animation-delay: -0.0001s; animation-play-state: paused; animation-trigger: none; fill-opacity: 0; stroke: rgb(10, 11, 30); stroke-width: 9px; transform-origin: 0px 0px; transition-property: none; visibility: visible"></path></g></g><g transform="matrix(-1.0700000524520874,0,0,1.119230031967163,239.218994140625,333.1239929199219)" opacity="0.77" style="display: block; transition: none !important; animation-duration: 0s !important; animation-delay: -0.0001s; animation-play-state: paused; animation-trigger: none; opacity: 0.77; transform: matrix(-1.07, 0, 0, 1.11923, 239.219, 333.124); transform-origin: 0px 0px; transition-property: none; visibility: visible"><g opacity="1" transform="matrix(1,0,0,1,0,0)" style="transition: none !important; animation-duration: 0s !important; animation-delay: -0.0001s; animation-play-state: paused; animation-trigger: none; transform: matrix(1, 0, 0, 1, 0, 0); transform-origin: 0px 0px; transition-property: none; visibility: visible"><path fill="rgb(255,253,99)" fill-opacity="1" d=" M-128.98800659179688,36.12300109863281 C-129.5679931640625,83.49600219726562 -87.67500305175781,115.229736328125 -65.75599670410156,126.50273132324219 C-43.83700180053711,137.7747344970703 -21.91900062561035,144.03773498535156 -4.394999980926514,144.03773498535156 C25.049999237060547,144.03773498535156 46.5369987487793,132.89599609375 52.73699951171875,129.63400268554688 C58.9370002746582,126.37200164794922 129.08450317382812,103.71672058105469 134.50350952148438,37.648719787597656 C137.21250915527344,4.626718997955322 135.09849548339844,-14.537480354309082 102.63949584960938,-57.916481018066406 C98.1824951171875,-42.107479095458984 78.52312469482422,-20.140579223632812 66.8291244506836,-10.167579650878906 C60.80353546142578,-52.69490432739258 55.165164947509766,-84.61295318603516 44.98896408081055,-105.43109893798828 C32.23875045776367,-131.23333740234375 15.786718368530273,-160.61375427246094 -12.71290111541748,-186.4634552001953 C-14.898341178894043,-156.06016540527344 -16.891958236694336,-132.945068359375 -20.180418014526367,-116.5129623413086 C-23.86971664428711,-91.91973114013672 -23.373783111572266,-83.13786315917969 -27.698026657104492,-62.7098503112793 C-43.81121063232422,-70.67982482910156 -59.66813278198242,-91.4312744140625 -68.30036163330078,-103.49134826660156 C-90.78865051269531,-60.98966598510742 -97.9842529296875,-46.535884857177734 -111.1613540649414,-18.515392303466797 C-118.96788024902344,-0.7304441332817078 -128.76699829101562,18.077999114990234 -128.98800659179688,36.12300109863281z" style="transition: none !important; animation-duration: 0s !important; animation-delay: -0.0001s; animation-play-state: paused; animation-trigger: none; fill: rgb(255, 253, 99); transform-origin: 0px 0px; transition-property: none; visibility: visible"></path></g></g><g transform="matrix(1.0700000524520874,0,0,1.119230031967163,242.35000610351562,380.4360046386719)" opacity="0.9" style="display: block; transition: none !important; animation-duration: 0s !important; animation-delay: -0.0001s; animation-play-state: paused; animation-trigger: none; opacity: 0.9; transform: matrix(1.07, 0, 0, 1.11923, 242.35, 380.436); transform-origin: 0px 0px; transition-property: none; visibility: visible"><g opacity="1" transform="matrix(1,0,0,1,0,0)" style="transition: none !important; animation-duration: 0s !important; animation-delay: -0.0001s; animation-play-state: paused; animation-trigger: none; transform: matrix(1, 0, 0, 1, 0, 0); transform-origin: 0px 0px; transition-property: none; visibility: visible"><path fill="rgb(255,255,255)" fill-opacity="1" d=" M-91.46708679199219,29.291728973388672 C-90.28408813476562,57.423728942871094 -65.75599670410156,83.6050033569336 -46.96900177001953,91.74600219726562 C-28.180999755859375,99.88700103759766 -13.928000450134277,101.76599884033203 -3.13100004196167,101.76599884033203 C7.665999889373779,101.76599884033203 28.180999755859375,100.01300048828125 46.96900177001953,91.74600219726562 C65.75700378417969,83.47899627685547 84.70892333984375,61.82595443725586 84.54399871826172,27.315000534057617 C84.27381896972656,-6.894993782043457 79.64409637451172,-13.917454719543457 65.23799896240234,-43.49300003051758 C56.356353759765625,-29.84463119506836 52.0099983215332,-25.594999313354492 40.667999267578125,-17.31599998474121 C29.2072696685791,-31.15936851501465 24.902545928955078,-42.7738151550293 17.836545944213867,-57.3988151550293 C9.150196075439453,-75.37681579589844 6.082347869873047,-90.4288101196289 -1.6728284358978271,-110.51545715332031 C-10.641927719116211,-98.25672149658203 -17.053813934326172,-83.56062316894531 -19.39044761657715,-70.53182220458984 C-21.614368438720703,-56.89035415649414 -23.07398796081543,-45.44056701660156 -23.249177932739258,-32.53083038330078 C-28.202177047729492,-38.983829498291016 -42.798362731933594,-50.27573776245117 -47.08536148071289,-60.673736572265625 C-58.686363220214844,-51.21073532104492 -68.88209533691406,-37.219093322753906 -76.51109313964844,-26.394092559814453 C-88.23309326171875,-9.763092041015625 -92.29708862304688,9.558730125427246 -91.46708679199219,29.291728973388672z" style="transition: none !important; animation-duration: 0s !important; animation-delay: -0.0001s; animation-play-state: paused; animation-trigger: none; fill: rgb(255, 255, 255); transform-origin: 0px 0px; transition-property: none; visibility: visible"></path></g></g></g></svg>