<svg xmlns="http://www.w3.org/2000/svg" viewBox="0 0 480 160" role="img">
  <defs>
    <linearGradient id="post-bg" x1="0" y1="0" x2="1" y2="1">
      <stop stop-color="#141b25" />
      <stop offset="0.55" stop-color="#090e15" />
      <stop offset="1" stop-color="#251822" />
    </linearGradient>
    <linearGradient id="post-screen" x1="0" y1="0" x2="1" y2="1">
      <stop stop-color="#72d4d0" stop-opacity="0.75" />
      <stop offset="0.52" stop-color="#6e79ff" stop-opacity="0.7" />
      <stop offset="1" stop-color="#f36d72" stop-opacity="0.65" />
    </linearGradient>
  </defs>
  <rect width="480" height="160" fill="url(#post-bg)" />
  <rect x="36" y="22" width="168" height="96" rx="4" fill="#05080d" stroke="#9fb7c4" stroke-opacity="0.52" />
  <rect x="48" y="34" width="144" height="72" fill="url(#post-screen)" opacity="0.55" />
  <path d="M48 83c18-31 30 24 46-3s30-20 43 1 24-27 55 4" fill="none" stroke="#e4f4f2" stroke-opacity="0.84" stroke-width="2" />
  <path d="M243 46h199M243 70h199M243 94h199M243 118h199" stroke="#a7bbc4" stroke-opacity="0.28" />
  <path d="M255 40v88M285 40v88M315 40v88M345 40v88M375 40v88M405 40v88" stroke="#a7bbc4" stroke-opacity="0.18" />
  <rect x="252" y="63" width="73" height="11" rx="5.5" fill="#65d3c5" opacity="0.76" />
  <rect x="340" y="87" width="89" height="11" rx="5.5" fill="#e56b74" opacity="0.7" />
  <circle cx="430" cy="25" r="5" fill="#f0bd76" />
</svg>
